<svg width="41" height="41" viewBox="0 0 41 41" fill="none" xmlns="http://www.w3.org/2000/svg">
<circle cx="20.1314" cy="20.9195" r="20.0772" fill="#D9D9D9"/>
<path d="M27.6606 11.6572H12.6027C10.4695 11.6572 8.83818 13.2885 8.83818 15.4217V30.4796C8.83818 32.6128 10.4695 34.2441 12.6027 34.2441H27.6606C29.7938 34.2441 31.4251 32.6128 31.4251 30.4796V15.4217C31.4251 13.2885 29.7938 11.6572 27.6606 11.6572ZM20.1316 19.1862C22.2648 19.1862 23.8961 20.8175 23.8961 22.9507C23.8961 25.0839 22.2648 26.7151 20.1316 26.7151C17.9984 26.7151 16.3671 25.0839 16.3671 22.9507C16.3671 20.8175 17.9984 19.1862 20.1316 19.1862ZM24.9 16.6765C24.9 15.7982 25.6529 15.1707 26.4057 15.1707C27.1586 15.1707 27.9115 15.9236 27.9115 16.6765C27.9115 17.4294 27.2841 18.1823 26.4057 18.1823C25.5274 18.1823 24.9 17.5549 24.9 16.6765V16.6765ZM27.6606 31.7344H12.6027C11.8498 31.7344 11.3478 31.2325 11.3478 30.4796V22.9507H13.8575C13.8575 26.4642 16.6181 29.2248 20.1316 29.2248C23.6451 29.2248 26.4057 26.4642 26.4057 22.9507H28.9154V30.4796C28.9154 31.2325 28.4135 31.7344 27.6606 31.7344Z" fill="#1B1B1B"/>
</svg>
