<svg width="41" height="41" viewBox="0 0 41 41" fill="none" xmlns="http://www.w3.org/2000/svg">
<circle cx="20.6636" cy="20.9195" r="20.0772" fill="#D9D9D9"/>
<path d="M29.3099 16.6915C30.3238 16.0691 30.9951 15.2196 31.3238 14.1392C30.3979 14.64 29.4042 15.0039 28.3738 15.2196C27.4916 14.2709 26.3748 13.7891 25.0359 13.7891C23.7271 13.7891 22.6216 14.2483 21.7194 15.1418C21.2837 15.566 20.9392 16.0748 20.707 16.6369C20.4749 17.1989 20.3599 17.8025 20.3692 18.4106C20.3692 18.7983 20.4182 19.1447 20.516 19.4383C16.6562 19.3065 13.4614 17.7054 10.9442 14.6235C10.5176 15.3777 10.3043 16.1456 10.3043 16.9399C10.3043 18.5725 10.9932 19.8662 12.3684 20.8161C11.5842 20.7496 10.8928 20.5513 10.3043 20.2263C10.3043 21.3921 10.6468 22.3658 11.3332 23.2228C12 24.058 12.9396 24.6315 13.9872 24.8428C13.5957 24.9432 13.1828 24.9909 12.7587 24.9909C12.3672 24.9909 12.0899 24.9583 11.9255 24.8867C12.2141 25.8366 12.7587 26.6071 13.5455 27.1969C14.3233 27.7875 15.2694 28.1141 16.2459 28.1292C14.5744 29.4405 12.6633 30.0893 10.5013 30.0893C9.97172 30.0893 9.59653 30.0817 9.36941 30.0416C11.4988 31.4244 13.8692 32.1108 16.4918 32.1108C19.1759 32.1108 21.5475 31.4307 23.6117 30.0704C25.6759 28.7177 27.1992 27.0488 28.178 25.0838C29.1459 23.1823 29.6499 21.0787 29.6487 18.9451V18.3579C30.5508 17.6927 31.3318 16.8773 31.9575 15.9474C31.1125 16.3136 30.2219 16.5639 29.3099 16.6915V16.6915Z" fill="#1B1B1B"/>
</svg>
